<mxfile host="app.diagrams.net" modified="2023-06-05T15:44:56.169Z" agent="Mozilla/5.0 (X11; Linux x86_64) AppleWebKit/537.36 (KHTML, like Gecko) Chrome/113.0.0.0 Safari/537.36" version="21.3.6" etag="_eiCjuK9hxS833h0ftR6" type="github">
  <diagram name="Page-1" id="3EKqc6VryaZLBkHgvI3s">
    <mxGraphModel>
      <root>
        <mxCell id="0" />
        <mxCell id="1" parent="0" />
      </root>
    </mxGraphModel>
  </diagram>
</mxfile>
